<?xml version="1.0" encoding="UTF-8"?>
<svg id="Camada_1" xmlns="http://www.w3.org/2000/svg" version="1.1" viewBox="0 0 1024 1024">
  <!-- Generator: Adobe Illustrator 30.1.0, SVG Export Plug-In . SVG Version: 2.1.1 Build 136)  -->
  <defs>
    <style>
      .st0 {
        fill: #fff;
      }
    </style>
  </defs>
  <g>
    <path class="st0" d="M693.78,579.85c32.49-29.84,59.31-58.58,77.2-98.93,13.6-30.67,19.14-70.17-1.54-98.59-22.39-30.77-65.1-33.88-100.82-33.86,16.49-4.6,33.17-5.14,50.4-5.12,21.64,0,42.73,2.81,62.5,10.61,31.9,12.58,52,40.49,53.78,74.94,2.65,51.29-28.42,99.52-62.27,135.81-20.87,22.05-43.69,41.17-68.71,58.85,1.16-16.3-1.27-30.55-10.54-43.72Z"/>
    <path class="st0" d="M725.7,498.32c7.78-35.09-1.04-66.47-32.32-86.11-33.29-20.9-86.29-20.4-124.33-14.28-50.7,8.16-98.9,25.31-143.53,50.29-5.23,2.93-9.05,6.45-14.77,8.29,13.24-11.45,27.17-20.83,42.66-29.53,53.02-29.76,110.96-49.01,171.45-56.37,30.03-3.66,66.37-2.66,93.85,9.45s41.36,36.86,39.54,65.8c-2.71,43.12-29.92,81.76-60.17,110.87-3.05,2.93-5.37,6.07-9.35,7.8,15.95-18.82,31.65-42.22,36.97-66.22Z"/>
    <g>
      <path class="st0" d="M345.82,619.14c-24.58,9.09-52.63-.16-65.01-23.09-37.24-1.27-67.93-26.73-66.36-65.91,1.61-40,31.6-82.08,59.38-109.71,54.09-53.81,128.54-96.37,200.97-119.77,24.98-8.07,49.05-14.3,75.64-17.51l-1.83,6.25c-73.73,23.3-151.85,66.72-210.22,117.67-28.29,24.7-57.44,58.17-70.28,93.73-6.45,17.85-8.37,40.86,7.95,54.76,7.14-21.16,25.2-35.43,46.53-37.29,21.84-1.9,43.16,8.72,53.06,28.81,13.83,28.06-.35,61.16-29.82,72.07Z"/>
      <path class="st0" d="M340.62,508.5c-7.3-1.05-13.81-1.14-22.1-.92,14.76-30.37,42.83-64.85,66.91-87.52,49.56-46.67,113.1-86.72,177.46-109.32-2.01-13.17.27-25.72,7.5-36.64,13.35-20.17,37.94-28.72,61.19-22.04,29.11,8.36,44.68,38.64,35.03,67.31-6.2,18.44-22.07,31.34-39.84,35.08-20.45,4.31-40.29-2.88-53.39-18.73-68.92,29.89-128.28,65.08-183.31,115.93-18.67,17.26-34.63,36.19-49.46,56.84Z"/>
    </g>
  </g>
  <g>
    <path class="st0" d="M238.03,598.81c6.23,3.75,12.2,6.15,19.98,7.71-8.73,34.85,3.58,67.62,35.97,85.05,24.31,13.09,53.56,15.47,81.07,14.03,66.81-3.51,139.39-30.48,199.06-61.22-17.33-34.8,3.61-75.51,40.26-85.14,21.69-5.63,43.94.88,58.83,16.77,15.24,16.26,19.94,39.06,12.82,60.81-10.18,31.07-43.09,48.12-74.45,39.93-68.64,39.63-149.7,69.75-228.54,75.99-22.02,1.79-43.05,1.14-64.62-2.47-45.25-7.56-82.06-35.14-88.54-82.55-3.5-25.64.34-42.99,8.16-68.9Z"/>
    <path class="st0" d="M323.73,685.85c-22.48-5.38-46.71-18.84-50.71-44.82,6.61,16.34,21.83,26.89,40.41,32.32,52.98,15.48,123.89-.07,175.92-16.32,22.55-7.04,43.66-14.49,64.81-25.61.71,1.29,1.23,3.29,1.38,5.28-62.19,32.17-162.61,65.71-231.82,49.15Z"/>
  </g>
</svg>